# xmcd
# 
# Track frame offsets:
#     150
#     12763
#     23500
#     41713
#     58418
#     75082
#     91873
#     106421
#     127975
#     142207
#     158591
#     171925
#     187689
#     205139
#     214909
#     230214
#     250576
#     265874
#     283173
#     308359
#     333263
# 
# Disc length: 4644
# 
# Revision: 4
# Processed by: cddbd v1.5.2PL0 Copyright (c) Steve Scherf et al.
# Submitted via: fre:ac v1.0.31
# 
DISCID=16122215
DTITLE=Emmylou Harris - Songbird... Rare Tracks and Forgotten Gems Disc 1
DYEAR=2007
DGENRE=Country
TTITLE0=Clocks (alt. version)
TTITLE1=The Angels Rejoiced Last Night (with Gram Parsons)
TTITLE2=The Old Country Baptizing (live with Gram Parsons and The Fallen Angels)
TTITLE3=Coat Of Many Colors
TTITLE4=For No One
TTITLE5=Ooh Las Vegas (live)
TTITLE6=Satan's Jewel Crown
TTITLE7=Tulsa Queen
TTITLE8=My Songbird
TTITLE9=Green Rolling Hills
TTITLE10=One Paper Kid (with Willie Nelson)
TTITLE11=Sorrow In The Wind
TTITLE12=Rough And Rocky
TTITLE13=Jordan (with Johnny Cash)
TTITLE14=Darkest Hour Is Just Before Dawn
TTITLE15=Ashes By Now (with Dr. John)
TTITLE16=How High The Moon
TTITLE17=Spanish Johnny (with Waylon Jennings)
TTITLE18=The Last Cheaters Waltz
TTITLE19=Racing In The Streets (live)
TTITLE20=Like An Old Fashioned Waltz
EXTD=
EXTT0=
EXTT1=
EXTT2=
EXTT3=
EXTT4=
EXTT5=
EXTT6=
EXTT7=
EXTT8=
EXTT9=
EXTT10=
EXTT11=
EXTT12=
EXTT13=
EXTT14=
EXTT15=
EXTT16=
EXTT17=
EXTT18=
EXTT19=
EXTT20=
PLAYORDER=
